<mxfile host="app.diagrams.net" modified="2023-11-04T12:15:24.893Z" agent="Mozilla/5.0 (X11; Linux x86_64) AppleWebKit/537.36 (KHTML, like Gecko) Chrome/118.0.0.0 Safari/537.36" etag="cIk8n-sqgDCLCguhrKwo" version="22.0.8" type="device">
  <diagram id="C5RBs43oDa-KdzZeNtuy" name="Page-1">
    <mxGraphModel dx="2261" dy="805" grid="1" gridSize="10" guides="1" tooltips="1" connect="1" arrows="1" fold="1" page="1" pageScale="1" pageWidth="827" pageHeight="1169" math="0" shadow="0">
      <root>
        <mxCell id="WIyWlLk6GJQsqaUBKTNV-0" />
        <mxCell id="WIyWlLk6GJQsqaUBKTNV-1" parent="WIyWlLk6GJQsqaUBKTNV-0" />
        <mxCell id="HNn9GH4JrD6ueqEwaOVi-0" value="&lt;b&gt;Raspberry PI&lt;/b&gt;" style="rounded=0;whiteSpace=wrap;html=1;fillColor=#ffcccc;strokeColor=#36393d;gradientColor=#ffffff;" parent="WIyWlLk6GJQsqaUBKTNV-1" vertex="1">
          <mxGeometry x="300" y="290" width="180" height="150" as="geometry" />
        </mxCell>
        <mxCell id="HNn9GH4JrD6ueqEwaOVi-1" value="Helligkeitssensor" style="rounded=0;whiteSpace=wrap;html=1;fillColor=#f5f5f5;fontColor=#333333;strokeColor=#666666;gradientColor=#ffffff;" parent="WIyWlLk6GJQsqaUBKTNV-1" vertex="1">
          <mxGeometry x="50" y="220" width="130" height="60" as="geometry" />
        </mxCell>
        <mxCell id="HNn9GH4JrD6ueqEwaOVi-3" value="Zeitserver" style="rounded=0;whiteSpace=wrap;html=1;fillColor=#f5f5f5;fontColor=#333333;strokeColor=#666666;gradientColor=#ffffff;" parent="WIyWlLk6GJQsqaUBKTNV-1" vertex="1">
          <mxGeometry x="50" y="460" width="130" height="60" as="geometry" />
        </mxCell>
        <mxCell id="HNn9GH4JrD6ueqEwaOVi-4" value="Temperatursensor" style="rounded=0;whiteSpace=wrap;html=1;fillColor=#f5f5f5;fontColor=#333333;strokeColor=#666666;gradientColor=#ffffff;" parent="WIyWlLk6GJQsqaUBKTNV-1" vertex="1">
          <mxGeometry x="50" y="300" width="130" height="60" as="geometry" />
        </mxCell>
        <mxCell id="HNn9GH4JrD6ueqEwaOVi-5" value="Luftfeuchtigkeitssensor" style="rounded=0;whiteSpace=wrap;html=1;fillColor=#f5f5f5;fontColor=#333333;strokeColor=#666666;gradientColor=#ffffff;" parent="WIyWlLk6GJQsqaUBKTNV-1" vertex="1">
          <mxGeometry x="50" y="380" width="130" height="60" as="geometry" />
        </mxCell>
        <mxCell id="HNn9GH4JrD6ueqEwaOVi-6" value="Relais" style="rounded=0;whiteSpace=wrap;html=1;fillColor=#f9f7ed;strokeColor=#36393d;gradientColor=#ffffff;" parent="WIyWlLk6GJQsqaUBKTNV-1" vertex="1">
          <mxGeometry x="600" y="450" width="120" height="60" as="geometry" />
        </mxCell>
        <mxCell id="HNn9GH4JrD6ueqEwaOVi-7" value="LED-Matrix" style="rounded=0;whiteSpace=wrap;html=1;fillColor=#f9f7ed;strokeColor=#36393d;gradientColor=#ffffff;" parent="WIyWlLk6GJQsqaUBKTNV-1" vertex="1">
          <mxGeometry x="600" y="350" width="120" height="60" as="geometry" />
        </mxCell>
        <mxCell id="HNn9GH4JrD6ueqEwaOVi-8" value="7-Segment Anzeige" style="rounded=0;whiteSpace=wrap;html=1;fillColor=#f9f7ed;strokeColor=#36393d;gradientColor=#ffffff;" parent="WIyWlLk6GJQsqaUBKTNV-1" vertex="1">
          <mxGeometry x="600" y="260" width="120" height="60" as="geometry" />
        </mxCell>
        <mxCell id="HNn9GH4JrD6ueqEwaOVi-9" value="LCD" style="rounded=0;whiteSpace=wrap;html=1;fillColor=#f9f7ed;strokeColor=#36393d;gradientColor=#ffffff;" parent="WIyWlLk6GJQsqaUBKTNV-1" vertex="1">
          <mxGeometry x="600" y="160" width="120" height="60" as="geometry" />
        </mxCell>
        <mxCell id="HNn9GH4JrD6ueqEwaOVi-10" value="Datenbank" style="rounded=0;whiteSpace=wrap;html=1;fillColor=#f9f7ed;strokeColor=#36393d;gradientColor=#ffffff;" parent="WIyWlLk6GJQsqaUBKTNV-1" vertex="1">
          <mxGeometry x="600" y="550" width="120" height="60" as="geometry" />
        </mxCell>
        <mxCell id="tkN0BTCUTwU5VylGvaYK-5" value="" style="edgeStyle=elbowEdgeStyle;elbow=horizontal;endArrow=classic;html=1;rounded=0;entryX=0;entryY=0.867;entryDx=0;entryDy=0;entryPerimeter=0;exitX=1;exitY=0.5;exitDx=0;exitDy=0;" parent="WIyWlLk6GJQsqaUBKTNV-1" source="HNn9GH4JrD6ueqEwaOVi-3" target="HNn9GH4JrD6ueqEwaOVi-0" edge="1">
          <mxGeometry width="50" height="50" relative="1" as="geometry">
            <mxPoint x="190" y="490" as="sourcePoint" />
            <mxPoint x="240" y="440" as="targetPoint" />
            <Array as="points">
              <mxPoint x="250" y="450" />
            </Array>
          </mxGeometry>
        </mxCell>
        <mxCell id="tkN0BTCUTwU5VylGvaYK-6" value="" style="edgeStyle=elbowEdgeStyle;elbow=horizontal;endArrow=classic;html=1;rounded=0;" parent="WIyWlLk6GJQsqaUBKTNV-1" edge="1">
          <mxGeometry width="50" height="50" relative="1" as="geometry">
            <mxPoint x="180" y="410" as="sourcePoint" />
            <mxPoint x="300" y="374" as="targetPoint" />
          </mxGeometry>
        </mxCell>
        <mxCell id="tkN0BTCUTwU5VylGvaYK-8" value="" style="edgeStyle=elbowEdgeStyle;elbow=horizontal;endArrow=classic;html=1;rounded=0;entryX=-0.006;entryY=0.393;entryDx=0;entryDy=0;entryPerimeter=0;" parent="WIyWlLk6GJQsqaUBKTNV-1" target="HNn9GH4JrD6ueqEwaOVi-0" edge="1">
          <mxGeometry width="50" height="50" relative="1" as="geometry">
            <mxPoint x="180" y="330" as="sourcePoint" />
            <mxPoint x="230" y="280" as="targetPoint" />
          </mxGeometry>
        </mxCell>
        <mxCell id="tkN0BTCUTwU5VylGvaYK-9" value="" style="edgeStyle=elbowEdgeStyle;elbow=horizontal;endArrow=classic;html=1;rounded=0;entryX=0;entryY=0.133;entryDx=0;entryDy=0;entryPerimeter=0;exitX=1;exitY=0.5;exitDx=0;exitDy=0;" parent="WIyWlLk6GJQsqaUBKTNV-1" source="HNn9GH4JrD6ueqEwaOVi-1" target="HNn9GH4JrD6ueqEwaOVi-0" edge="1">
          <mxGeometry width="50" height="50" relative="1" as="geometry">
            <mxPoint x="170" y="260" as="sourcePoint" />
            <mxPoint x="220" y="210" as="targetPoint" />
          </mxGeometry>
        </mxCell>
        <mxCell id="tkN0BTCUTwU5VylGvaYK-10" value="" style="edgeStyle=elbowEdgeStyle;elbow=horizontal;endArrow=classic;html=1;rounded=0;entryX=0;entryY=0.5;entryDx=0;entryDy=0;" parent="WIyWlLk6GJQsqaUBKTNV-1" target="HNn9GH4JrD6ueqEwaOVi-9" edge="1">
          <mxGeometry width="50" height="50" relative="1" as="geometry">
            <mxPoint x="480" y="300" as="sourcePoint" />
            <mxPoint x="520" y="250" as="targetPoint" />
            <Array as="points">
              <mxPoint x="520" y="250" />
            </Array>
          </mxGeometry>
        </mxCell>
        <mxCell id="tkN0BTCUTwU5VylGvaYK-11" value="" style="edgeStyle=elbowEdgeStyle;elbow=horizontal;endArrow=classic;html=1;rounded=0;entryX=0;entryY=0.5;entryDx=0;entryDy=0;" parent="WIyWlLk6GJQsqaUBKTNV-1" target="HNn9GH4JrD6ueqEwaOVi-8" edge="1">
          <mxGeometry width="50" height="50" relative="1" as="geometry">
            <mxPoint x="480" y="330" as="sourcePoint" />
            <mxPoint x="530" y="280" as="targetPoint" />
          </mxGeometry>
        </mxCell>
        <mxCell id="tkN0BTCUTwU5VylGvaYK-13" value="" style="edgeStyle=elbowEdgeStyle;elbow=horizontal;endArrow=classic;html=1;rounded=0;exitX=1;exitY=0.75;exitDx=0;exitDy=0;" parent="WIyWlLk6GJQsqaUBKTNV-1" source="HNn9GH4JrD6ueqEwaOVi-0" edge="1">
          <mxGeometry width="50" height="50" relative="1" as="geometry">
            <mxPoint x="550" y="530" as="sourcePoint" />
            <mxPoint x="600" y="480" as="targetPoint" />
          </mxGeometry>
        </mxCell>
        <mxCell id="tkN0BTCUTwU5VylGvaYK-14" value="" style="edgeStyle=elbowEdgeStyle;elbow=horizontal;endArrow=classic;html=1;rounded=0;exitX=1.033;exitY=0.933;exitDx=0;exitDy=0;exitPerimeter=0;" parent="WIyWlLk6GJQsqaUBKTNV-1" source="HNn9GH4JrD6ueqEwaOVi-0" edge="1">
          <mxGeometry width="50" height="50" relative="1" as="geometry">
            <mxPoint x="550" y="630" as="sourcePoint" />
            <mxPoint x="600" y="580" as="targetPoint" />
            <Array as="points">
              <mxPoint x="520" y="500" />
            </Array>
          </mxGeometry>
        </mxCell>
        <mxCell id="tkN0BTCUTwU5VylGvaYK-16" value="" style="endArrow=classic;html=1;rounded=0;entryX=0;entryY=0.5;entryDx=0;entryDy=0;exitX=1.006;exitY=0.587;exitDx=0;exitDy=0;exitPerimeter=0;" parent="WIyWlLk6GJQsqaUBKTNV-1" source="HNn9GH4JrD6ueqEwaOVi-0" target="HNn9GH4JrD6ueqEwaOVi-7" edge="1">
          <mxGeometry width="50" height="50" relative="1" as="geometry">
            <mxPoint x="480" y="370" as="sourcePoint" />
            <mxPoint x="530" y="320" as="targetPoint" />
          </mxGeometry>
        </mxCell>
        <mxCell id="7TOWIUKh1QZM7jD9GIKe-5" style="edgeStyle=orthogonalEdgeStyle;rounded=0;orthogonalLoop=1;jettySize=auto;html=1;exitX=1;exitY=0.5;exitDx=0;exitDy=0;entryX=0;entryY=0.5;entryDx=0;entryDy=0;" edge="1" parent="WIyWlLk6GJQsqaUBKTNV-1" source="7TOWIUKh1QZM7jD9GIKe-0" target="HNn9GH4JrD6ueqEwaOVi-1">
          <mxGeometry relative="1" as="geometry" />
        </mxCell>
        <mxCell id="7TOWIUKh1QZM7jD9GIKe-0" value="Helligkeit" style="rounded=0;whiteSpace=wrap;html=1;fillColor=#f5f5f5;fontColor=#333333;strokeColor=#666666;gradientColor=#ffffff;" vertex="1" parent="WIyWlLk6GJQsqaUBKTNV-1">
          <mxGeometry x="-140" y="220" width="130" height="60" as="geometry" />
        </mxCell>
        <mxCell id="7TOWIUKh1QZM7jD9GIKe-4" style="edgeStyle=orthogonalEdgeStyle;rounded=0;orthogonalLoop=1;jettySize=auto;html=1;exitX=1;exitY=0.5;exitDx=0;exitDy=0;entryX=0;entryY=0.5;entryDx=0;entryDy=0;" edge="1" parent="WIyWlLk6GJQsqaUBKTNV-1" source="7TOWIUKh1QZM7jD9GIKe-1" target="HNn9GH4JrD6ueqEwaOVi-4">
          <mxGeometry relative="1" as="geometry" />
        </mxCell>
        <mxCell id="7TOWIUKh1QZM7jD9GIKe-1" value="Temperatur" style="rounded=0;whiteSpace=wrap;html=1;fillColor=#f5f5f5;fontColor=#333333;strokeColor=#666666;gradientColor=#ffffff;" vertex="1" parent="WIyWlLk6GJQsqaUBKTNV-1">
          <mxGeometry x="-140" y="300" width="130" height="60" as="geometry" />
        </mxCell>
        <mxCell id="7TOWIUKh1QZM7jD9GIKe-3" style="edgeStyle=orthogonalEdgeStyle;rounded=0;orthogonalLoop=1;jettySize=auto;html=1;exitX=1;exitY=0.5;exitDx=0;exitDy=0;" edge="1" parent="WIyWlLk6GJQsqaUBKTNV-1" source="7TOWIUKh1QZM7jD9GIKe-2" target="HNn9GH4JrD6ueqEwaOVi-5">
          <mxGeometry relative="1" as="geometry" />
        </mxCell>
        <mxCell id="7TOWIUKh1QZM7jD9GIKe-2" value="Luftfeuchtigkeit" style="rounded=0;whiteSpace=wrap;html=1;fillColor=#f5f5f5;fontColor=#333333;strokeColor=#666666;gradientColor=#ffffff;" vertex="1" parent="WIyWlLk6GJQsqaUBKTNV-1">
          <mxGeometry x="-140" y="380" width="130" height="60" as="geometry" />
        </mxCell>
      </root>
    </mxGraphModel>
  </diagram>
</mxfile>
